<svg width="38" height="38" viewBox="0 0 38 38" fill="none" xmlns="http://www.w3.org/2000/svg">
<g clip-path="url(#clip0_12_78)">
<path fill-rule="evenodd" clip-rule="evenodd" d="M7.91666 14.25C7.91666 8.12885 12.8788 3.16667 19 3.16667C25.1212 3.16667 30.0833 8.12885 30.0833 14.25V15.8894C32.7688 16.2737 34.8333 18.5833 34.8333 21.375V21.7708C34.8333 24.6128 32.5294 26.9167 29.6875 26.9167C29.6438 26.9167 29.6004 26.9157 29.5573 26.9137C28.385 30.2702 25.4068 32.5323 22.1902 33.1064C21.4472 33.3779 20.5657 33.25 19.7917 33.25C18.48 33.25 17.4167 32.1866 17.4167 30.875C17.4167 29.5634 18.48 28.5 19.7917 28.5H21.375C22.1581 28.5 22.8527 28.8791 23.2853 29.4636C25.3389 28.4872 26.9167 26.4235 26.9167 23.75V14.25C26.9167 9.87776 23.3722 6.33334 19 6.33334C14.6277 6.33334 11.0833 9.87776 11.0833 14.25V24.1458C11.0833 25.6761 9.84278 26.9167 8.31249 26.9167C5.47052 26.9167 3.16666 24.6128 3.16666 21.7708V21.375C3.16666 18.5833 5.23109 16.2737 7.91666 15.8894V14.25ZM7.91666 19.1352C6.99421 19.4612 6.33332 20.3409 6.33332 21.375V21.7708C6.33332 22.7283 7.01327 23.5271 7.91666 23.7104V19.1352ZM30.0833 19.1352V23.7104C30.9868 23.5271 31.6667 22.7283 31.6667 21.7708V21.375C31.6667 20.3409 31.0058 19.4612 30.0833 19.1352Z" fill="#FFA200"/>
</g>
<defs>
<clipPath id="clip0_12_78">
<rect width="38" height="38" fill="white"/>
</clipPath>
</defs>
</svg>
