<svg width="32" height="32" viewBox="0 0 32 32" fill="none" xmlns="http://www.w3.org/2000/svg">
<path d="M14.5918 2.16667H17.4082C19.8719 2.16664 21.7739 2.16813 23.252 2.36686C24.6656 2.55692 25.7582 2.93422 26.6221 3.71354L26.792 3.87565C26.9623 4.04648 26.9833 4.3097 26.8555 4.50358L26.791 4.58268C26.5957 4.77752 26.2791 4.77781 26.084 4.58268C25.4115 3.91015 24.516 3.54493 23.1191 3.3571C21.7078 3.16734 19.8611 3.16667 17.333 3.16667H14.667C12.1389 3.16667 10.2922 3.16734 8.88086 3.3571C7.48388 3.54494 6.58853 3.91017 5.91602 4.58268C5.2435 5.2552 4.87827 6.15055 4.69043 7.54753C4.50068 8.95885 4.5 10.8056 4.5 13.3337V18.6667C4.5 21.1945 4.50074 23.0405 4.69043 24.4518C4.87826 25.8488 5.24345 26.7451 5.91602 27.4176C6.58849 28.09 7.48402 28.4545 8.88086 28.6423C10.2922 28.832 12.1389 28.8337 14.667 28.8337H17.333C19.8611 28.8337 21.7078 28.832 23.1191 28.6423C24.5159 28.4545 25.4115 28.09 26.084 27.4176C26.6337 26.8679 26.9721 26.1791 27.1787 25.2145C27.3821 24.2646 27.4638 23.0174 27.4883 21.3258C27.4925 21.0498 27.7201 20.8297 27.9961 20.8337C28.2375 20.8373 28.4363 21.0115 28.4795 21.2399L28.4883 21.3405C28.441 24.6104 28.2136 26.702 26.791 28.1247C25.9016 29.0138 24.7598 29.4306 23.252 29.6335C21.7739 29.8321 19.8718 29.8337 17.4082 29.8337H14.5918C12.1282 29.8337 10.2261 29.8321 8.74805 29.6335C7.24016 29.4306 6.09834 29.0139 5.20898 28.1247C4.31968 27.2353 3.90294 26.0934 3.7002 24.5856C3.50146 23.1075 3.49997 21.2056 3.5 18.7419V13.2585C3.49997 10.7948 3.50147 8.89279 3.7002 7.41471C3.90292 5.90678 4.31963 4.76502 5.20898 3.87565C6.09835 2.9863 7.24011 2.56959 8.74805 2.36686C10.2261 2.16814 12.1282 2.16664 14.5918 2.16667ZM10.667 22.1667H12.667C12.943 22.1668 13.167 22.3906 13.167 22.6667C13.167 22.9427 12.943 23.1665 12.667 23.1667H10.667C10.3909 23.1667 10.167 22.9428 10.167 22.6667C10.167 22.3905 10.3909 22.1667 10.667 22.1667ZM24.5039 9.74772C25.7231 8.52863 27.7 8.52867 28.9189 9.74772C30.138 10.9668 30.1381 12.9436 28.9189 14.1628L22.5781 20.5026C22.2275 20.8534 22.0173 21.0628 21.7852 21.2438V21.2448C21.5064 21.4623 21.204 21.6482 20.8848 21.8005C20.6189 21.927 20.3375 22.0218 19.8672 22.1784L17.0889 23.1051C16.6552 23.2497 16.1768 23.1364 15.8535 22.8132C15.5302 22.4899 15.417 22.0115 15.5615 21.5778L16.4697 18.8561C16.473 18.8461 16.4764 18.836 16.4795 18.8268C16.4826 18.8174 16.4854 18.8081 16.4883 18.7995C16.645 18.3292 16.7397 18.0478 16.8662 17.7819C17.0185 17.4626 17.2044 17.1603 17.4219 16.8815H17.4229C17.6039 16.6494 17.8133 16.4392 18.1641 16.0885C18.1709 16.0817 18.1776 16.074 18.1846 16.0671C18.1915 16.0601 18.199 16.0536 18.2061 16.0465L24.5039 9.74772ZM23.4414 12.2243L18.9131 16.7536C18.5211 17.1457 18.3533 17.3142 18.2109 17.4967C18.0383 17.7182 17.8895 17.9579 17.7686 18.2116C17.669 18.4205 17.5933 18.6453 17.418 19.1715L16.8848 20.7731L16.7861 21.0661L17.6006 21.8805L17.8936 21.7819L19.4941 21.2477C20.0208 21.0723 20.2461 20.9977 20.4551 20.8981C20.7088 20.7772 20.9484 20.6284 21.1699 20.4557C21.3525 20.3134 21.521 20.1456 21.9131 19.7536L26.4424 15.2253L26.9229 14.7448L26.3213 14.4284C25.9371 14.2265 25.521 13.9435 25.1221 13.5446C24.7232 13.1457 24.4401 12.7296 24.2383 12.3454L23.9219 11.7438L23.4414 12.2243ZM10.667 16.8337H14C14.2761 16.8337 14.5 17.0575 14.5 17.3337C14.4998 17.6096 14.276 17.8337 14 17.8337H10.667C10.391 17.8337 10.1672 17.6096 10.167 17.3337C10.167 17.0575 10.3909 16.8337 10.667 16.8337ZM28.2119 10.4548C27.3834 9.62629 26.0405 9.62641 25.2119 10.4548L24.9688 10.6969L24.7588 10.9069L24.8428 11.1921L24.8955 11.3571C25.0403 11.7746 25.3142 12.3225 25.8291 12.8376C26.3444 13.3528 26.8931 13.6263 27.3105 13.7712C27.368 13.7911 27.4229 13.8086 27.4746 13.8239L27.7598 13.9079L27.9697 13.6979L28.2119 13.4548C28.9884 12.678 29.037 11.4491 28.3574 10.6159L28.2119 10.4548ZM10.667 11.4997H19.333C19.609 11.4997 19.8328 11.7237 19.833 11.9997C19.833 12.2758 19.6091 12.4997 19.333 12.4997H10.667C10.3909 12.4997 10.167 12.2758 10.167 11.9997C10.1672 11.7237 10.391 11.4997 10.667 11.4997Z" fill="#D95BDD" stroke="black"/>
</svg>
