<svg width="32" height="32" viewBox="0 0 32 32" fill="none" xmlns="http://www.w3.org/2000/svg">
<path d="M9 5V32H13.5V26.5C13.5 26.2235 13.7235 26 14 26H18C18.2765 26 18.5 26.2235 18.5 26.5V32H23V10V2C23 0.8945 22.1055 0 21 0H11C9.8945 0 9 0.8945 9 2V5ZM17 4.5C17 4.2235 17.2235 4 17.5 4H19.5C19.7765 4 20 4.2235 20 4.5V6.5C20 6.7765 19.7765 7 19.5 7H17.5C17.2235 7 17 6.7765 17 6.5V4.5ZM17 9.5C17 9.2235 17.2235 9 17.5 9H19.5C19.7765 9 20 9.2235 20 9.5V11.5C20 11.7765 19.7765 12 19.5 12H17.5C17.2235 12 17 11.7765 17 11.5V9.5ZM17 14.5C17 14.2235 17.2235 14 17.5 14H19.5C19.7765 14 20 14.2235 20 14.5V16.5C20 16.7765 19.7765 17 19.5 17H17.5C17.2235 17 17 16.7765 17 16.5V14.5ZM17 19.5C17 19.2235 17.2235 19 17.5 19H19.5C19.7765 19 20 19.2235 20 19.5V21.5C20 21.7765 19.7765 22 19.5 22H17.5C17.2235 22 17 21.7765 17 21.5V19.5ZM12 4.5C12 4.2235 12.2235 4 12.5 4H14.5C14.7765 4 15 4.2235 15 4.5V6.5C15 6.7765 14.7765 7 14.5 7H12.5C12.2235 7 12 6.7765 12 6.5V4.5ZM12 9.5C12 9.2235 12.2235 9 12.5 9H14.5C14.7765 9 15 9.2235 15 9.5V11.5C15 11.7765 14.7765 12 14.5 12H12.5C12.2235 12 12 11.7765 12 11.5V9.5ZM12 14.5C12 14.2235 12.2235 14 12.5 14H14.5C14.7765 14 15 14.2235 15 14.5V16.5C15 16.7765 14.7765 17 14.5 17H12.5C12.2235 17 12 16.7765 12 16.5V14.5ZM12 19.5C12 19.2235 12.2235 19 12.5 19H14.5C14.7765 19 15 19.2235 15 19.5V21.5C15 21.7765 14.7765 22 14.5 22H12.5C12.2235 22 12 21.7765 12 21.5V19.5Z" fill="#535353"/>
<path d="M14 15H13V16H14V15Z" fill="#535353"/>
<path d="M14 20H13V21H14V20Z" fill="#535353"/>
<path d="M17.5 27H14.5V32H17.5V27Z" fill="#535353"/>
<path d="M5 25H4V26H5V25Z" fill="#535353"/>
<path d="M14 5H13V6H14V5Z" fill="#535353"/>
<path d="M14 10H13V11H14V10Z" fill="#535353"/>
<path d="M19 10H18V11H19V10Z" fill="#535353"/>
<path d="M19 5H18V6H19V5Z" fill="#535353"/>
<path d="M19 15H18V16H19V15Z" fill="#535353"/>
<path d="M19 20H18V21H19V20Z" fill="#535353"/>
<path d="M5 20H4V21H5V20Z" fill="#535353"/>
<path d="M8 5H2C0.8945 5 0 5.8945 0 7V30C0 31.1055 0.8945 32 2 32H8V5ZM6 26.5C6 26.7765 5.7765 27 5.5 27H3.5C3.2235 27 3 26.7765 3 26.5V24.5C3 24.2235 3.2235 24 3.5 24H5.5C5.7765 24 6 24.2235 6 24.5V26.5ZM6 21.5C6 21.7765 5.7765 22 5.5 22H3.5C3.2235 22 3 21.7765 3 21.5V19.5C3 19.2235 3.2235 19 3.5 19H5.5C5.7765 19 6 19.2235 6 19.5V21.5ZM6 16.5C6 16.7765 5.7765 17 5.5 17H3.5C3.2235 17 3 16.7765 3 16.5V14.5C3 14.2235 3.2235 14 3.5 14H5.5C5.7765 14 6 14.2235 6 14.5V16.5ZM5.5 12H3.5C3.2235 12 3 11.7765 3 11.5V9.5C3 9.2235 3.2235 9 3.5 9H5.5C5.7765 9 6 9.2235 6 9.5V11.5C6 11.7765 5.7765 12 5.5 12Z" fill="#535353"/>
<path d="M28 25H27V26H28V25Z" fill="#535353"/>
<path d="M28 20H27V21H28V20Z" fill="#535353"/>
<path d="M28 15H27V16H28V15Z" fill="#535353"/>
<path d="M30 10H24V32H30C31.1055 32 32 31.1055 32 30V12C32 10.8945 31.1055 10 30 10ZM29 26.5C29 26.7765 28.7765 27 28.5 27H26.5C26.2235 27 26 26.7765 26 26.5V24.5C26 24.2235 26.2235 24 26.5 24H28.5C28.7765 24 29 24.2235 29 24.5V26.5ZM29 21.5C29 21.7765 28.7765 22 28.5 22H26.5C26.2235 22 26 21.7765 26 21.5V19.5C26 19.2235 26.2235 19 26.5 19H28.5C28.7765 19 29 19.2235 29 19.5V21.5ZM29 16.5C29 16.7765 28.7765 17 28.5 17H26.5C26.2235 17 26 16.7765 26 16.5V14.5C26 14.2235 26.2235 14 26.5 14H28.5C28.7765 14 29 14.2235 29 14.5V16.5Z" fill="#535353"/>
<path d="M5 15H4V16H5V15Z" fill="#535353"/>
<path d="M5 10H4V11H5V10Z" fill="#535353"/>
</svg>
