<svg width="36" height="36" viewBox="0 0 36 36" fill="none" xmlns="http://www.w3.org/2000/svg">
<rect x="0.6" y="0.6" width="34.8" height="34.8" rx="17.4" fill="white" stroke="#E8D7C9" stroke-width="1.2"/>
<path d="M22.8285 20.684C22.1062 19.8 21.5963 19.35 21.5963 16.913C21.5963 14.6813 20.4567 13.8862 19.5187 13.5C19.3941 13.4488 19.2768 13.3313 19.2389 13.2033C19.0743 12.6433 18.6131 12.15 18 12.15C17.3868 12.15 16.9253 12.6436 16.7625 13.2039C16.7245 13.3332 16.6072 13.4488 16.4826 13.5C15.5435 13.8867 14.405 14.679 14.405 16.913C14.4036 19.35 13.8937 19.8 13.1715 20.684C12.8722 21.0502 13.1343 21.6 13.6578 21.6H22.345C22.8656 21.6 23.126 21.0485 22.8285 20.684Z" stroke="#252B5C" stroke-width="1.25" stroke-linecap="round" stroke-linejoin="round"/>
<path d="M19.8 21.6V22.05C19.8 22.5274 19.6103 22.9852 19.2728 23.3228C18.9352 23.6604 18.4774 23.85 18 23.85C17.5226 23.85 17.0648 23.6604 16.7272 23.3228C16.3896 22.9852 16.2 22.5274 16.2 22.05V21.6" stroke="#252B5C" stroke-width="1.25" stroke-linecap="round" stroke-linejoin="round"/>
<circle cx="22.32" cy="11.52" r="4.32" fill="white"/>
<circle cx="22.32" cy="11.52" r="2.16" fill="#FD5F4A"/>
</svg>
