<svg width="24" height="24" viewBox="0 0 24 24" fill="none" xmlns="http://www.w3.org/2000/svg">
<path d="M3 11.9895V14.4999C3 17.7997 3 19.4496 4.02513 20.4748C5.05025 21.4999 6.70017 21.4999 10 21.4999H14C17.2998 21.4999 18.9497 21.4999 19.9749 20.4748C21 19.4496 21 17.7997 21 14.4999V11.9895C21 10.3082 21 9.46764 20.6441 8.73996C20.2882 8.01228 19.6247 7.49619 18.2976 6.46402L16.2976 4.90846C14.2331 3.30276 13.2009 2.49991 12 2.49991C10.7991 2.49991 9.76689 3.30276 7.70242 4.90846L5.70241 6.46402C4.37533 7.49619 3.71179 8.01228 3.3559 8.73996C3 9.46764 3 10.3082 3 11.9895Z" fill="#EEEEEE" stroke="#C7956B" stroke-width="1.5" stroke-linecap="round" stroke-linejoin="round"/>
<path d="M15 17.0001C14.2005 17.6225 13.1502 18.0001 12 18.0001C10.8497 18.0001 9.79953 17.6225 9 17.0001" stroke="#C5610F" stroke-width="1.5" stroke-linecap="round" stroke-linejoin="round"/>
</svg>
