<svg width="34" height="34" viewBox="0 0 34 34" fill="none" xmlns="http://www.w3.org/2000/svg">
<g clip-path="url(#clip0_12_71)">
<path fill-rule="evenodd" clip-rule="evenodd" d="M26.0331 3.82322C30.8912 6.375 34 11.4123 34 17C34 22.5935 30.8847 27.6351 26.0188 30.1843C25.499 30.4566 24.8569 30.2559 24.5846 29.7362C24.3123 29.2164 24.5129 28.5742 25.0327 28.3019C29.2051 26.1161 31.875 21.7953 31.875 17C31.875 12.2096 29.2107 7.8926 25.0449 5.70449C24.5254 5.43162 24.3255 4.78927 24.5984 4.26978C24.8712 3.75028 25.5136 3.55035 26.0331 3.82322ZM20.8429 5.05007C21.1075 5.41346 21.25 5.85139 21.25 6.3009V27.7035C21.25 28.8771 20.2986 29.8285 19.125 29.8285C18.6761 29.8285 18.2387 29.6863 17.8756 29.4224L10.1141 23.7811C9.751 23.5172 9.31364 23.375 8.86475 23.375H3.1875C1.42709 23.375 0 21.9479 0 20.1875V13.8125C0 12.0521 1.42709 10.625 3.1875 10.625H8.88453C9.33404 10.625 9.77197 10.4825 10.1354 10.2179L17.8742 4.58303C18.8229 3.89222 20.1521 4.10132 20.8429 5.05007ZM25.4751 9.85024C27.5036 11.653 28.6875 14.2322 28.6875 17C28.6875 19.8015 27.4745 22.409 25.403 24.2132C24.9605 24.5986 24.2894 24.5523 23.904 24.1099C23.5186 23.6674 23.5648 22.9962 24.0073 22.6108C25.6202 21.206 26.5625 19.1805 26.5625 17C26.5625 14.8457 25.6429 12.8423 24.0635 11.4386C23.6249 11.0488 23.5853 10.3772 23.9751 9.93861C24.3649 9.5 25.0365 9.46043 25.4751 9.85024Z" fill="#FF5648"/>
</g>
<defs>
<clipPath id="clip0_12_71">
<rect width="34" height="34" fill="white"/>
</clipPath>
</defs>
</svg>
