<svg width="21" height="21" viewBox="0 0 21 21" fill="none" xmlns="http://www.w3.org/2000/svg">
<path d="M3.64831 10.1832V14.8938L10.4969 16.1805V5.91455" stroke="#C5610F" stroke-linecap="round" stroke-linejoin="round"/>
<path d="M17.3084 10.3079V14.8115L10.4969 16.1805" stroke="#C5610F" stroke-linecap="round" stroke-linejoin="round"/>
<path d="M12.5889 9.65784L18.4455 10.4645C18.5364 10.4771 18.6289 10.4651 18.7136 10.4298C18.7983 10.3946 18.872 10.3373 18.9271 10.264C18.9822 10.1907 19.0167 10.104 19.0271 10.0129C19.0375 9.92178 19.0233 9.82954 18.9861 9.74573L17.3083 5.96945L10.4969 4.8197L3.64814 6.0244L2.01749 9.53123C1.9797 9.6124 1.96375 9.70203 1.9712 9.79126C1.97865 9.88049 2.00926 9.96623 2.05999 10.04C2.11071 10.1138 2.17981 10.1731 2.26046 10.212C2.3411 10.2509 2.4305 10.2681 2.51983 10.2619L8.35542 9.85629C8.47163 9.84827 8.58349 9.80883 8.67904 9.7422C8.77458 9.67556 8.85024 9.58422 8.89792 9.47794L10.497 5.9149L12.0953 9.29572C12.141 9.39235 12.21 9.47607 12.2962 9.53929C12.3824 9.60252 12.483 9.64326 12.5889 9.65784Z" stroke="#C5610F" stroke-linecap="round" stroke-linejoin="round"/>
<path d="M4.7705 13.4155L6.05714 13.5524" stroke="#C5610F" stroke-linecap="round" stroke-linejoin="round"/>
</svg>
