<svg width="35" height="23" viewBox="0 0 35 23" fill="none" xmlns="http://www.w3.org/2000/svg">
<path d="M32.5 22.5H28.75V21.25C29.4412 21.25 30 20.69 30 20C30 19.3088 29.4412 18.75 28.75 18.75H26.25C25.5588 18.75 25 19.3088 25 20C25 20.69 25.5588 21.25 26.25 21.25V22.5H10V21.25C10.6912 21.25 11.25 20.69 11.25 20C11.25 19.3088 10.6912 18.75 10 18.75H7.5C6.80875 18.75 6.25 19.3088 6.25 20C6.25 20.69 6.80875 21.25 7.5 21.25V22.5H2.5C1.12 22.5 0 21.38 0 20V2.5C0 1.12 1.12 0 2.5 0H32.5C33.88 0 35 1.12 35 2.5V20C35 21.38 33.88 22.5 32.5 22.5ZM10 3.515C8.49 3.515 7.265 5.12375 7.265 7.10875C7.265 9.09375 8.49 10.7025 10 10.7025C11.51 10.7025 12.735 9.09375 12.735 7.10875C12.735 5.12375 11.51 3.515 10 3.515ZM14.3625 12.11C13.6887 11.6612 11.7488 11.3625 11.7488 11.3625C11.7488 11.3625 10.4912 12.7063 9.9575 12.7063C9.4225 12.7063 8.165 11.3625 8.165 11.3625C8.165 11.3625 6.225 11.66 5.5525 12.11C4.87875 12.5575 4.58125 14.9362 4.58125 14.9362H15.35C15.35 14.9362 15.1537 12.6362 14.3625 12.11ZM30 5H18.75V6.25H30V5ZM30 7.5H18.75V8.75H30V7.5ZM30 10H18.75V11.25H30V10ZM30 12.5H18.75V13.75H30V12.5Z" fill="#4D87DD"/>
</svg>
